# xmcd
#
# Track frame offsets:
#	150
#	19425
#	38250
#	61050
#	67800
#	84150
#	103500
#	148875
#	169800
#	176325
#	205425
#	221175
#
# Disc length: 3814 seconds
#
# Revision: 1
# Processed by: cddbd v1.5.1PL0 Copyright (c) Steve Scherf et al.
# Submitted via: CDex 1.50Beta5
#
DISCID=a10ee40c
DTITLE=バッハ - どこかで聞いたクラシック
DYEAR=1900
DGENRE=Classical
TTITLE0=2つのバイオリンのための協奏曲〜第1楽章
TTITLE1=フーガ ト短調(小フーガ)
TTITLE2=無伴奏チェロ組曲 第6番〜プレリュード
TTITLE3=平均律クラビィーア曲集 第1巻 第1番〜プレリュード
TTITLE4=リュート組曲 ホ短調〜ガボット・アン・ロンドー
TTITLE5=イタリア協奏曲〜第1楽章
TTITLE6=ブランデンブルク協奏曲 第5番〜第1楽章
TTITLE7=G線上のマリア
TTITLE8=管弦楽組曲 第2番〜バディアリ
TTITLE9=マタイ受難曲〜われら涙もてうずくまり
TTITLE10=主よ、人の望みの喜びよ
TTITLE11=無伴奏バイオリンのためのパルティータ第2番〜シャコンヌ
EXTD=
EXTT0=
EXTT1=
EXTT2=
EXTT3=
EXTT4=
EXTT5=
EXTT6=
EXTT7=
EXTT8=
EXTT9=
EXTT10=
EXTT11=
PLAYORDER=
